<mxfile host="app.diagrams.net" modified="2024-06-24T07:29:01.694Z" agent="Mozilla/5.0 (Windows NT 10.0; Win64; x64) AppleWebKit/537.36 (KHTML, like Gecko) Chrome/126.0.0.0 Safari/537.36" version="24.6.2" etag="L3m3Za6vVAkJg5xuwO5o" type="github">
  <diagram name="Page-1" id="EZWvGrqgDJNIrlURRfDy">
    <mxGraphModel>
      <root>
        <mxCell id="0" />
        <mxCell id="1" parent="0" />
      </root>
    </mxGraphModel>
  </diagram>
</mxfile>
